# xmcd
#
# Track frame offsets:
#	150
#	16864
#	31696
#	48394
#	66294
#	81724
#	98027
#	114851
#	131929
#	152758
#	168684
#
# Disc length: 2436 seconds
#
# Revision: 1
# Processed by: cddbd v1.5.2PL0 Copyright (c) Steve Scherf et al.
# Submitted via: audiograbber 1.83.01
#
DISCID=8d09820b
DTITLE=Didrik Solli-Tangen - Guilty Pleasures
DYEAR=2010
DGENRE=
TTITLE0=Compass
TTITLE1=Your Song
TTITLE2=Daughters
TTITLE3=Nighthawk Diner
TTITLE4=Best Kept Secret
TTITLE5=When Words Won't Come
TTITLE6=You
TTITLE7=Released
TTITLE8=Next To You
TTITLE9=Cold Words
TTITLE10=My Heart Is Yours
EXTD=
EXTT0=
EXTT1=
EXTT2=
EXTT3=
EXTT4=
EXTT5=
EXTT6=
EXTT7=
EXTT8=
EXTT9=
EXTT10=
PLAYORDER=
